<?xml version="1.0" encoding="UTF-8" standalone="no"?>
<svg
   width="512"
   height="512"
   viewBox="0 0 512 512"
   id="Layer_1"
   version="1.1"
   xml:space="preserve"
   sodipodi:docname="decentra-vault-1.svg"
   inkscape:version="1.2 (dc2aedaf03, 2022-05-15)"
   inkscape:export-filename="../decentra-vault-1.svg"
   inkscape:export-xdpi="96"
   inkscape:export-ydpi="96"
   xmlns:inkscape="http://www.inkscape.org/namespaces/inkscape"
   xmlns:sodipodi="http://sodipodi.sourceforge.net/DTD/sodipodi-0.dtd"
   xmlns="http://www.w3.org/2000/svg"
   xmlns:svg="http://www.w3.org/2000/svg"><defs
     id="defs186"><rect
       x="438.13162"
       y="178.0415"
       width="80.407677"
       height="40.136208"
       id="rect4576" /><rect
       x="75.31427"
       y="222.04214"
       width="105.03878"
       height="64.223969"
       id="rect3502" /><rect
       x="32.861141"
       y="210.03719"
       width="450.77509"
       height="71.338158"
       id="rect2380" /><rect
       x="27.154539"
       y="408.24854"
       width="325.02975"
       height="48.914574"
       id="rect1836" /></defs><sodipodi:namedview
     id="namedview184"
     pagecolor="#ffffff"
     bordercolor="#666666"
     borderopacity="1.0"
     inkscape:showpageshadow="2"
     inkscape:pageopacity="0.0"
     inkscape:pagecheckerboard="0"
     inkscape:deskcolor="#d1d1d1"
     showgrid="false"
     inkscape:zoom="0.75682523"
     inkscape:cx="255.01264"
     inkscape:cy="249.72741"
     inkscape:window-width="1366"
     inkscape:window-height="750"
     inkscape:window-x="0"
     inkscape:window-y="18"
     inkscape:window-maximized="1"
     inkscape:current-layer="g181" /><style
     type="text/css"
     id="style161">
	.st0{fill:#2B79C2;}
	.st1{fill:#3B4652;}
	.st2{fill:#333333;}
</style><g
     id="g181"><path
       class="st0"
       d="M 356,403 H 156 c -4.2,0 -7.5,3.4 -7.5,7.5 v 34.9 c 0,4.2 3.4,7.5 7.5,7.5 h 200 c 4.2,0 7.5,-3.4 7.5,-7.5 v -34.9 c 0.1,-4.1 -3.3,-7.5 -7.5,-7.5 z"
       id="path163" /><path
       class="st1"
       d="m 339.8,391 c 5.1,0 9.3,-4.1 9.3,-9.3 v -65.5 c 0,-5.1 -4.1,-9.3 -9.3,-9.3 H 172.3 c -5.1,0 -9.3,4.1 -9.3,9.3 v 65.5 c 0,5.1 4.1,9.3 9.3,9.3 z m -99.1,-51.1 c 0.5,-7.7 6.8,-14 14.6,-14.4 8.8,-0.4 16.1,6.6 16.1,15.3 0,4.2 -1.7,8.1 -4.5,10.9 l 7.3,20.8 h -36.3 l 7.3,-20.8 c -3.1,-3 -4.8,-7.2 -4.5,-11.8 z"
       id="path165" /><path
       class="st0"
       d="m 356,157 h -22.7 v -50 c 0,-42.6 -34.7,-77.3 -77.3,-77.3 -42.6,0 -77.3,34.7 -77.3,77.3 v 50 H 156 c -4.2,0 -7.5,3.4 -7.5,7.5 v 34.9 c 0,4.2 3.4,7.5 7.5,7.5 h 200 c 4.2,0 7.5,-3.4 7.5,-7.5 v -34.9 c 0.1,-4.1 -3.3,-7.5 -7.5,-7.5 z m -38.7,0 H 194.7 v -50 c 0,-33.8 27.5,-61.3 61.3,-61.3 33.8,0 61.3,27.5 61.3,61.3 z"
       id="path167" /><path
       class="st1"
       d="m 352.89799,173.02518 h 30.5 c 4.4,0 8,-3.6 8,-8 V 38.025179 h 10.3 c 3.3,9.7 12.6,16.8 23.4,16.8 13.6,0 24.8,-11.1 24.8,-24.8 0,-13.7 -11.1,-24.8000005 -24.8,-24.8000005 -10.8,0 -20.1,7.0000005 -23.4,16.8000005 h -18.3 c -4.4,0 -8,3.6 -8,8 V 157.02518 h -22.5 c -4.4,0 -8,3.6 -8,8 0,4.4 3.6,8 8,8 z"
       id="path169"
       style="fill:#2b79c2;fill-opacity:1" /><path
       class="st1"
       d="m 421.7,288.2 c -10.8,0 -20.1,7 -23.4,16.8 h -15.8 c -4.4,0 -8,3.6 -8,8 v 31.3 h -34.3 c -4.4,0 -8,3.6 -8,8 0,4.4 3.6,8 8,8 h 42.3 c 4.4,0 8,-3.6 8,-8 V 321 h 7.8 c 3.3,9.7 12.6,16.8 23.4,16.8 13.6,0 24.8,-11.1 24.8,-24.8 0,-13.7 -11.1,-24.8 -24.8,-24.8 z"
       id="path171" /><path
       class="st1"
       d="M 167.9,344.3 H 133.5 V 313 c 0,-4.4 -3.6,-8 -8,-8 h -15.8 c -3.3,-9.7 -12.6,-16.8 -23.4,-16.8 -13.6,0 -24.8,11.1 -24.8,24.8 0,13.7 11.1,24.8 24.8,24.8 10.8,0 20.1,-7 23.4,-16.8 h 7.8 v 31.3 c 0,4.4 3.6,8 8,8 h 42.3 c 4.4,0 8,-3.6 8,-8 0,-4.4 -3.5,-8 -7.9,-8 z"
       id="path177" /><path
       style="fill:#2b79c2;fill-opacity:1;stroke-width:0.934307"
       d="m 85.155113,506.14721 c -5.379897,-1.31983 -8.338609,-3.14131 -12.58425,-7.74728 -14.185122,-15.38905 -3.130319,-39.80833 18.037007,-39.84249 9.40203,-0.0152 17.65326,5.20513 21.72575,13.74523 1.20812,2.53346 1.98586,3.06316 4.49752,3.06316 h 3.03681 l 0.29379,-16.43332 0.2938,-16.43333 2.62145,-2.25281 c 2.57644,-2.21413 2.92932,-2.25229 20.55474,-2.22309 18.87269,0.0313 19.78525,0.21719 22.06452,4.49527 1.45117,2.72378 0.67773,6.05066 -1.98294,8.52945 -1.83922,1.71349 -3.2662,1.89447 -14.93759,1.89447 H 135.8716 v 14.34233 c 0,8.08716 -0.45166,15.63797 -1.0356,17.31306 -1.48811,4.2688 -4.99449,5.71688 -13.84291,5.71688 -7.31553,0 -7.53052,0.0651 -8.88839,2.69091 -5.12674,9.91403 -16.834361,15.62307 -26.949587,13.14156 z"
       id="path1727" /><path
       style="fill:#2b79c2;fill-opacity:1;stroke-width:0.934307"
       d="m 415.28125,505.92801 c -5.50534,-1.79062 -10.22334,-5.60877 -13.55676,-10.97112 l -2.81298,-4.52513 h -7.38119 c -7.6923,0 -12.16939,-1.43498 -13.24817,-4.24624 -0.31921,-0.83184 -0.58038,-8.62549 -0.58038,-17.31923 v -15.8068 H 364.6979 c -7.15214,0 -13.68448,-0.26117 -14.51631,-0.58037 -1.7032,-0.65358 -4.24624,-5.07742 -4.24624,-7.38671 0,-0.83585 1.22897,-2.7487 2.73105,-4.25077 l 2.73105,-2.73105 h 17.77159 c 17.43419,0 17.82137,0.0428 20.39304,2.2528 l 2.62145,2.25281 0.2938,16.43333 0.2938,16.43332 h 3.0368 c 2.51166,0 3.2894,-0.5297 4.49752,-3.06316 7.5448,-15.82159 28.8922,-18.60909 40.3149,-5.26424 8.30698,9.70483 7.74586,23.47542 -1.32621,32.5475 -6.24914,6.24914 -16.09296,8.80103 -24.01289,6.22506 z"
       id="path1729" /><path
       style="fill:#2b79c2;fill-opacity:1;stroke-width:0.934307"
       d="m 124.22888,169.64148 -2.29329,-2.29329 V 102.37141 37.394637 h -5.58685 c -5.51269,0 -5.61078,0.0465 -7.38889,3.50365 -7.54129,14.66233 -27.727033,17.12517 -38.909663,4.74733 -4.613642,-5.10675 -6.332145,-9.50131 -6.332145,-16.19259 0,-6.67142 1.718085,-11.08538 6.280555,-16.13549 10.35233,-11.4588019 29.03292,-9.9342499 37.769503,3.08242 l 3.11719,4.64431 10.77283,0.49982 c 10.33198,0.47937 10.86395,0.60576 12.9996,3.0886 l 2.22677,2.58877 v 64.88221 64.882213 h 12.68501 12.68501 l 2.73105,2.73105 c 2.96306,2.96305 3.32441,4.68647 1.64413,7.84132 -2.19045,4.11272 -3.22164,4.31574 -22.07964,4.34682 -17.91312,0.0295 -18.04246,0.0151 -20.32117,-2.26359 z"
       id="path1780" /><text
       xml:space="preserve"
       id="text1834"
       style="font-style:normal;font-weight:normal;font-size:192px;line-height:1.25;font-family:sans-serif;white-space:pre;shape-inside:url(#rect1836);display:inline;fill:#2b79c2;fill-opacity:1;stroke:none"
       transform="translate(73.94862,-174.97351)"><tspan
         x="27.154297"
         y="631.72166"
         id="tspan2839"><tspan
           dx="0 60.999973 39.208317 36.583321 38.624985 45.958313 28.999985 30.291641 41.041656 21.5 22.166656 35.458313 39.041656 45.208313 15.083313 50.083313 41.041626 45.791687 21.5"
           style="font-size:85.3333px"
           id="tspan2837">Decentralized Vault</tspan></tspan></text><path
       style="fill:#2b79c2;fill-opacity:1;stroke-width:0.934307"
       d=""
       id="path1890" /><text
       xml:space="preserve"
       id="text2378"
       style="font-style:normal;font-weight:normal;font-size:48px;line-height:1.25;font-family:sans-serif;white-space:pre;shape-inside:url(#rect2380);display:inline;fill:#2b79c2;fill-opacity:1;stroke:none"
       transform="translate(17.347115,14.821225)"><tspan
         x="32.861328"
         y="368.6538"
         id="tspan2845"><tspan
           style="font-size:96px"
           id="tspan2841">D</tspan><tspan
           dx="68.15625 25.968018 21.743958 25.968018 27.64801 16.992004 16.031982 26.160004 13.007996 13.440033 22.703979 25.968018 27.312012 12 25.007996 26.160004 27.64801 13.007996"
           style="font-family:Changa;-inkscape-font-specification:Changa"
           id="tspan2843">ecentralized Vault</tspan></tspan></text><text
       xml:space="preserve"
       id="text3500"
       style="font-style:normal;font-weight:normal;font-size:40px;line-height:1.25;font-family:sans-serif;white-space:pre;shape-inside:url(#rect3502);fill:#000000;fill-opacity:1;stroke:none" /><text
       xml:space="preserve"
       style="font-style:normal;font-weight:normal;font-size:96px;line-height:1.25;font-family:sans-serif;fill:#2b79c2;fill-opacity:1;stroke:none"
       x="65.635155"
       y="277.3031"
       id="text3508"
       transform="rotate(-0.16745879)"><tspan
         sodipodi:role="line"
         id="tspan3506"
         x="65.635155"
         y="277.3031"
         style="font-style:normal;font-variant:normal;font-weight:normal;font-stretch:normal;font-size:96px;font-family:FreeMono;-inkscape-font-specification:FreeMono;fill:#2b79c2;fill-opacity:1">D</tspan></text><text
       xml:space="preserve"
       style="font-style:normal;font-weight:normal;font-size:96px;line-height:1.25;font-family:sans-serif;fill:#2b79c2;fill-opacity:1;stroke:none"
       x="321.21829"
       y="276.44202"
       id="text3508-3"
       transform="rotate(-0.0511926)"><tspan
         sodipodi:role="line"
         id="tspan3506-6"
         x="321.21829"
         y="276.44202"
         style="font-style:normal;font-variant:normal;font-weight:normal;font-stretch:normal;font-size:96px;font-family:FreeMono;-inkscape-font-specification:FreeMono;fill:#2b79c2;fill-opacity:1">V</tspan></text><text
       xml:space="preserve"
       style="font-style:normal;font-weight:normal;font-size:40px;line-height:1.25;font-family:sans-serif;fill:#3b4652;fill-opacity:1;stroke:none"
       x="118.76925"
       y="276.09601"
       id="text3992"><tspan
         sodipodi:role="line"
         id="tspan3990"
         x="118.76925"
         y="276.09601"
         style="font-style:normal;font-variant:normal;font-weight:normal;font-stretch:normal;font-family:Calibri;-inkscape-font-specification:Calibri">ecentralized</tspan></text><text
       xml:space="preserve"
       style="font-style:normal;font-weight:normal;font-size:40px;line-height:1.25;font-family:sans-serif;fill:#000000;fill-opacity:1;stroke:none"
       x="319.23962"
       y="235.57117"
       id="text4545"><tspan
         sodipodi:role="line"
         id="tspan4543"
         x="319.23962"
         y="235.57117" /></text><text
       xml:space="preserve"
       id="text4574"
       style="font-style:normal;font-weight:normal;font-size:40px;line-height:1.25;font-family:sans-serif;white-space:pre;shape-inside:url(#rect4576);fill:#000000;fill-opacity:1;stroke:none" /><text
       xml:space="preserve"
       style="font-style:normal;font-weight:normal;font-size:40px;line-height:1.25;font-family:sans-serif;fill:#3b4652;fill-opacity:1;stroke:none"
       x="375.3602"
       y="275.52698"
       id="text4582"><tspan
         sodipodi:role="line"
         id="tspan4580"
         x="375.3602"
         y="275.52698"
         style="font-style:normal;font-variant:normal;font-weight:normal;font-stretch:normal;font-family:Calibri;-inkscape-font-specification:Calibri;fill:#3b4652;fill-opacity:1">ault</tspan></text><path
       style="opacity:1;fill:#2b79c2;fill-opacity:1;stroke:#2b79c2;stroke-width:0;stroke-linecap:butt;stroke-linejoin:miter;stroke-dasharray:none;stroke-opacity:1"
       d="m 338.43211,222.10262 24.1703,-0.0253 0.12435,3.97157 -25.28033,-0.0239 z"
       id="path5852" /><path
       style="opacity:1;fill:#2b79c2;fill-opacity:1;stroke:#2b79c2;stroke-width:0;stroke-dasharray:none;stroke-opacity:1"
       d="m 349.60472,272.89428 c -0.10744,-0.26534 -18.43241,-46.96219 -18.74596,-47.76965 -0.0465,-0.11978 1.90793,-0.13326 19.31064,-0.13326 16.95124,0 19.35628,0.0157 19.31328,0.12645 -0.0271,0.0695 -4.40801,10.88022 -9.73555,24.02369 -5.32753,13.14348 -9.70558,23.94589 -9.72898,24.00535 -0.0844,0.21451 -0.27028,0.10093 -0.41343,-0.25258 z"
       id="path7432" /><path
       style="fill:#ffffff;fill-opacity:1;stroke-width:0.165164"
       d="m 348.5902,258.69458 c -6.38729,-5.46681 -10.49305,-12.95976 -11.55965,-21.0962 -0.39436,-3.0084 -0.45261,-2.81505 0.88778,-2.94713 3.62772,-0.35747 8.45781,-2.08949 11.34037,-4.06654 l 0.66849,-0.45849 0.90056,0.58182 c 1.26659,0.8183 4.29001,2.2393 5.85547,2.75207 1.63982,0.53712 3.93507,1.04232 5.42572,1.19424 l 1.13147,0.11531 -0.10774,1.09034 c -0.78795,7.97393 -3.97101,14.98634 -9.33039,20.5553 -1.06777,1.10953 -3.65333,3.41024 -3.83239,3.41019 -0.0321,-10e-6 -0.65297,-0.50892 -1.37969,-1.13091 z"
       id="path688-3" /><path
       style="fill:#000000;fill-opacity:0;stroke-width:0.165164"
       d="m 93.400031,263.87411 c -6.387294,-5.46681 -10.493055,-12.95976 -11.559648,-21.0962 -0.394368,-3.0084 -0.452613,-2.81505 0.887775,-2.94713 3.627718,-0.35747 8.457813,-2.08949 11.340369,-4.06654 l 0.668495,-0.45849 0.900559,0.58182 c 1.266592,0.8183 4.290006,2.2393 5.855469,2.75207 1.63982,0.53712 3.93507,1.04232 5.42572,1.19424 l 1.13147,0.11531 -0.10774,1.09034 c -0.78795,7.97393 -3.97101,14.98634 -9.330392,20.5553 -1.067772,1.10953 -3.65333,3.41024 -3.83239,3.41019 -0.03211,-10e-6 -0.652967,-0.50892 -1.379687,-1.13091 z"
       id="path686" /></g></svg>
