<?xml version="1.0" encoding="UTF-8" standalone="no"?>
<!-- Created with Inkscape (http://www.inkscape.org/) -->

<svg
   width="572.98743"
   height="572.99622"
   viewBox="0 0 572.98743 572.99622"
   version="1.1"
   id="SVGRoot"
   sodipodi:docname="/tmp/ink_ext_XXXXXX.svg5PS7O1"
   inkscape:export-filename="devault-fetrah.png"
   inkscape:export-xdpi="171.56398"
   inkscape:export-ydpi="171.56398"
   xmlns:inkscape="http://www.inkscape.org/namespaces/inkscape"
   xmlns:sodipodi="http://sodipodi.sourceforge.net/DTD/sodipodi-0.dtd"
   xmlns="http://www.w3.org/2000/svg"
   xmlns:svg="http://www.w3.org/2000/svg">
  <sodipodi:namedview
     id="namedview3407"
     pagecolor="#ffffff"
     bordercolor="#666666"
     borderopacity="1.0"
     inkscape:showpageshadow="2"
     inkscape:pageopacity="0.0"
     inkscape:pagecheckerboard="0"
     inkscape:deskcolor="#d1d1d1"
     inkscape:document-units="px"
     showgrid="true"
     inkscape:zoom="0.25"
     inkscape:cx="30.0"
     inkscape:cy="30.0"
     inkscape:window-width="1366"
     inkscape:window-height="768"
     inkscape:window-x="0"
     inkscape:window-y="0"
     inkscape:window-maximized="0"
     inkscape:current-layer="layer1">
    <inkscape:grid
       type="xygrid"
       id="grid3413" />
  </sodipodi:namedview>
  <defs
     id="defs3402" />
  <path
     style="display:inline;fill:#e84793;fill-opacity:1;stroke-width:1.00389"
     id="path5501-6-7"
     sodipodi:type="arc"
     sodipodi:cx="-316.99692"
     sodipodi:cy="252.9158"
     sodipodi:rx="286.23981"
     sodipodi:ry="286.23981"
     sodipodi:start="6.2825677"
     sodipodi:end="6.2825656"
     sodipodi:arc-type="slice"
     d="M -30.757165,252.73902 A 286.23981,286.23981 0 0 1 -316.81998,539.15555 286.23981,286.23981 0 0 1 -603.23667,253.09289 286.23981,286.23981 0 0 1 -317.17415,-33.32395 286.23981,286.23981 0 0 1 -30.757166,252.73842 l -286.239754,0.17738 z"
     transform="rotate(-96.414526)" />
  <path
     id="path5501-6"
     style="display:inline;fill:#50c1e1;fill-opacity:1;stroke-width:1.00686"
     d="M 481.56013,75.901663 A 287.08654,287.08654 0 0 0 254.83841,1.8170526 L 287.08785,287.08626 254.83562,1.8170226 A 287.08654,287.08654 0 0 0 1.817243,319.33708 287.08654,287.08654 0 0 0 82.308653,487.32241 L 494.77617,89.940863 a 287.08654,287.08654 0 0 0 -13.21604,-14.0392 z" />
  <path
     id="path665"
     style="fill:#a38fd8;fill-opacity:1;stroke-width:26.4754"
     inkscape:label="path665"
     d="m 160.39633,72.715083 c -20.79675,0 -37.67153,17.12885 -37.67153,38.268967 0,21.14047 16.87478,38.286 37.67153,38.286 16.38109,0 30.32328,-10.62107 35.50372,-25.46718 l 21.64359,-0.0176 18.14445,32.10701 -15.34513,26.57662 c 13.04615,0.0524 26.09666,0.27091 39.13948,-0.10233 9.18002,-0.26304 17.16152,0.73413 23.98209,2.64568 11.95179,-2.12235 23.86943,-4.47683 35.86212,-6.36672 3.58122,-0.56458 7.17154,-1.14136 10.78771,-1.3997 5.34563,-0.38192 9.10766,-0.29453 13.02368,-0.0874 2.23764,-1.04018 4.59018,-1.98692 7.18614,-2.74811 l -9.86598,-17.37633 18.82726,-33.25064 21.64359,0.0176 c 5.18061,14.84608 19.12263,25.4841 35.50372,25.4841 20.7971,0 37.67153,-17.16257 37.67153,-38.30304 0,-21.140117 -16.87443,-38.268947 -37.67153,-38.268947 -16.38109,0 -30.32311,10.638 -35.50372,25.4842 l -24.25518,0.0176 c -7.53781,0.11704 -14.43746,4.293117 -18.1274,10.975427 l -19.80011,35.00873 h -60.68065 l -19.8002,-35.02544 c -3.69134,-6.67286 -10.5798,-10.843017 -18.11028,-10.958377 l -24.25518,-0.0176 c -5.18044,-14.8268 -19.12263,-25.4842 -35.50372,-25.4842 z M 137.69438,252.82826 c 0.18701,0.90183 0.42126,1.78897 0.70004,2.67984 0.0874,0.2683 0.16083,0.52962 0.22197,0.7848 0.73585,-0.33734 1.44018,-0.74372 2.15069,-1.12659 -1.08797,-0.74459 -2.10882,-1.51863 -3.07244,-2.33849 z m 140.73478,5.80346 c -4.2885,0.52089 -7.44553,0.86609 -20.3805,2.3385 -1.21408,3.92599 -3.34691,7.54262 -6.2644,10.70233 7.73847,-3.98918 15.1146,-8.79375 23.31643,-11.70946 1.11512,-0.42559 2.21909,-0.88888 3.32847,-1.33137 z m 77.10106,55.13318 c -0.87584,0.097 -1.7531,0.15378 -2.62862,0.25606 -8.71971,1.01649 -16.35742,2.16484 -24.01625,3.85766 l 9.67826,17.12025 c 3.68565,6.68415 10.58975,10.87792 18.12737,10.99248 h 10.25846 c -2.13711,-1.85004 -4.2135,-3.77024 -6.02535,-6.02534 -2.93529,-3.64975 -1.36256,-2.48742 -3.85766,-5.73523 -0.30938,-0.40288 -0.71576,-0.7175 -1.07528,-1.07539 -6.55593,-6.52159 -3.57038,-13.23884 1.80932,-13.50165 0.34082,-0.0176 0.7,-0.0176 1.05823,0.0176 z m -67.11561,23.48708 c -3.26479,0 -6.41873,0.4693 -9.43924,1.26311 -3.20464,1.53201 -6.22882,2.78069 -9.45627,3.94293 -11.20798,6.63303 -18.75899,18.94725 -18.75899,33.07995 0,21.13994 16.85737,38.26895 37.6545,38.26895 20.79647,0 37.65438,-17.12901 37.65438,-38.26895 0,-21.14047 -16.85791,-38.28599 -37.65438,-38.28599 z" />
  <g
     id="g288"
     transform="matrix(8.7393789,0,0,8.7393789,7.611003,55.408333)">
    <path
       id="path276"
       class="st9"
       d="m 31.949219,8 c -5.73999,0 -10.609379,3.709385 -12.359375,8.859375 -0.29,-0.02 -0.590627,-0.03906 -0.890625,-0.03906 C 12.789231,16.810311 8,21.599778 8,27.509766 c 0,5.909988 4.789231,10.701172 10.699219,10.701172 h 28.560547 c 4.82999,0 8.740234,-3.910245 8.740234,-8.740235 0,-4.82999 -3.910244,-8.75 -8.740234,-8.75 -0.78,0 -1.530002,0.108828 -2.25,0.298828 C 44.989766,13.829545 39.149205,8 31.949219,8 Z"
       style="fill:#a38fd8" />
    <g
       id="g286">
      <g
         id="g280">
        <path
           class="st3"
           d="m 25.86,36.36 v -4.09 c 0,-3.39 2.76,-6.14 6.14,-6.14 3.39,0 6.14,2.76 6.14,6.14 v 4.09 h 4.07 v -4.09 c 0,-5.63 -4.58,-10.22 -10.22,-10.22 -5.64,0 -10.21,4.58 -10.21,10.22 v 4.09 z"
           id="path278"
           style="fill:#ffffff" />
      </g>
      <path
         class="st6"
         d="m 32,56 v 0 C 25.07,56 19.45,50.38 19.45,43.45 v -7.44 h 25.1 v 7.44 C 44.55,50.38 38.93,56 32,56 Z"
         id="path282"
         style="fill:#f38e7a" />
      <path
         class="st5"
         d="m 34.83,43.08 c 0,-1.56 -1.27,-2.83 -2.83,-2.83 -1.56,0 -2.83,1.27 -2.83,2.83 0,0.98 0.5,1.85 1.27,2.36 v 3.35 c 0,0.86 0.7,1.56 1.56,1.56 0.86,0 1.56,-0.7 1.56,-1.56 v -3.35 c 0.77,-0.51 1.27,-1.38 1.27,-2.36 z"
         id="path284"
         style="fill:#db7767" />
    </g>
  </g>
</svg>
