<?xml version="1.0" encoding="UTF-8" standalone="no"?>
<svg
   width="64"
   height="64"
   viewBox="0 0 64 64"
   id="Layer_1"
   version="1.1"
   xml:space="preserve"
   sodipodi:docname="cloud-computing-cloud-security-network-password-network-security-privacy-code-svgrepo-com.svg"
   xmlns:inkscape="http://www.inkscape.org/namespaces/inkscape"
   xmlns:sodipodi="http://sodipodi.sourceforge.net/DTD/sodipodi-0.dtd"
   xmlns="http://www.w3.org/2000/svg"
   xmlns:svg="http://www.w3.org/2000/svg"><defs
     id="defs293" /><sodipodi:namedview
     id="namedview291"
     pagecolor="#ffffff"
     bordercolor="#666666"
     borderopacity="1.0"
     inkscape:showpageshadow="2"
     inkscape:pageopacity="0.0"
     inkscape:pagecheckerboard="0"
     inkscape:deskcolor="#d1d1d1"
     showgrid="false" /><style
     type="text/css"
     id="style274">
	.st0{fill:#B4E6DD;}
	.st1{fill:#80D4C4;}
	.st2{fill:#D2F0EA;}
	.st3{fill:#FFFFFF;}
	.st4{fill:#FBD872;}
	.st5{fill:#DB7767;}
	.st6{fill:#F38E7A;}
	.st7{fill:#F6AF62;}
	.st8{fill:#32A48E;}
	.st9{fill:#A38FD8;}
	.st10{fill:#7C64BD;}
	.st11{fill:#EAA157;}
	.st12{fill:#9681CF;}
	.st13{fill:#F9C46A;}
	.st14{fill:#CE6B61;}
</style><path
     id="path665"
     style="fill:#a38fd8;fill-opacity:1;stroke-width:3.02943"
     inkscape:label="path665"
     d="m 17.548828,6.09375 c -2.379662,0 -4.310547,1.9599575 -4.310547,4.378906 0,2.418992 1.930885,4.38086 4.310547,4.38086 1.874404,0 3.469736,-1.215304 4.0625,-2.914063 l 2.476563,-0.002 2.076171,3.673828 -1.755859,3.041016 c 1.492793,0.0057 2.986096,0.03103 4.478516,-0.01172 1.050419,-0.03009 1.963702,0.084 2.74414,0.302734 1.367579,-0.242851 2.731254,-0.512257 4.103516,-0.728515 0.409774,-0.06458 0.820599,-0.130597 1.234375,-0.160156 0.611667,-0.04371 1.042136,-0.03369 1.490234,-0.0098 0.256032,-0.119022 0.525228,-0.227346 0.822266,-0.314453 l -1.128906,-1.988281 2.154297,-3.804688 2.476562,0.002 c 0.592782,1.69876 2.188095,2.916016 4.0625,2.916016 2.379694,0 4.310547,-1.963821 4.310547,-4.382813 0,-2.4189485 -1.930853,-4.378906 -4.310547,-4.378906 -1.874405,0 -3.469718,1.2172475 -4.0625,2.9160156 l -2.775391,0.00195 c -0.862511,0.01343 -1.652001,0.4912441 -2.074218,1.2558594 l -2.265625,4.00586 h -6.94336 L 26.458984,10.265625 C 26.036602,9.5020892 25.248388,9.0249201 24.386719,9.0117188 l -2.775391,-0.00195 C 21.018564,7.3132233 19.423232,6.09375 17.548828,6.09375 Z m -2.597656,20.609375 c 0.02144,0.103195 0.0482,0.204701 0.08008,0.306641 0.0096,0.03072 0.01843,0.06058 0.02539,0.08984 0.08424,-0.03864 0.164793,-0.08511 0.246093,-0.128906 -0.124494,-0.08524 -0.241303,-0.173769 -0.351562,-0.267578 z m 16.103516,0.664063 c -0.490712,0.05958 -0.851951,0.09906 -2.332032,0.267578 -0.138916,0.449236 -0.382966,0.863068 -0.716797,1.224609 0.885474,-0.456451 1.729486,-1.006212 2.667969,-1.339844 0.127603,-0.04872 0.253919,-0.10171 0.38086,-0.152343 z m 8.822265,6.308593 c -0.10022,0.01111 -0.200601,0.01762 -0.300781,0.0293 -0.997751,0.116311 -1.871696,0.247707 -2.748047,0.441406 l 1.107422,1.958985 c 0.421734,0.764826 1.211738,1.2447 2.074219,1.257812 h 1.173828 c -0.244545,-0.211695 -0.482131,-0.431413 -0.689453,-0.689453 -0.335866,-0.417623 -0.155913,-0.284616 -0.441407,-0.65625 -0.03543,-0.04606 -0.08188,-0.0821 -0.123046,-0.123047 -0.750159,-0.746239 -0.408538,-1.514852 0.207031,-1.544922 0.03903,-0.0019 0.08007,-0.0023 0.121093,0.002 z m -7.679687,2.6875 c -0.373566,0 -0.734458,0.05366 -1.080078,0.144531 -0.366687,0.175303 -0.712731,0.31818 -1.082032,0.451172 -1.282466,0.758972 -2.146484,2.168026 -2.146484,3.785157 0,2.418926 1.928902,4.378906 4.308594,4.378906 2.379631,0 4.308593,-1.95998 4.308593,-4.378906 0,-2.418992 -1.928962,-4.38086 -4.308593,-4.38086 z" /><g
     id="g288"
     transform="translate(0.06643428,4.1134278)"><path
       id="path276"
       class="st9"
       d="m 31.949219,8 c -5.73999,0 -10.609379,3.709385 -12.359375,8.859375 -0.29,-0.02 -0.590627,-0.03906 -0.890625,-0.03906 C 12.789231,16.810311 8,21.599778 8,27.509766 c 0,5.909988 4.789231,10.701172 10.699219,10.701172 h 28.560547 c 4.82999,0 8.740234,-3.910245 8.740234,-8.740235 0,-4.82999 -3.910244,-8.75 -8.740234,-8.75 -0.78,0 -1.530002,0.108828 -2.25,0.298828 C 44.989766,13.829545 39.149205,8 31.949219,8 Z" /><g
       id="g286"><g
         id="g280"><path
           class="st3"
           d="m 25.86,36.36 v -4.09 c 0,-3.39 2.76,-6.14 6.14,-6.14 3.39,0 6.14,2.76 6.14,6.14 v 4.09 h 4.07 v -4.09 c 0,-5.63 -4.58,-10.22 -10.22,-10.22 -5.64,0 -10.21,4.58 -10.21,10.22 v 4.09 z"
           id="path278" /></g><path
         class="st6"
         d="m 32,56 v 0 C 25.07,56 19.45,50.38 19.45,43.45 v -7.44 h 25.1 v 7.44 C 44.55,50.38 38.93,56 32,56 Z"
         id="path282" /><path
         class="st5"
         d="m 34.83,43.08 c 0,-1.56 -1.27,-2.83 -2.83,-2.83 -1.56,0 -2.83,1.27 -2.83,2.83 0,0.98 0.5,1.85 1.27,2.36 v 3.35 c 0,0.86 0.7,1.56 1.56,1.56 0.86,0 1.56,-0.7 1.56,-1.56 v -3.35 c 0.77,-0.51 1.27,-1.38 1.27,-2.36 z"
         id="path284" /></g></g></svg>
