<?xml version="1.0" encoding="UTF-8" standalone="no"?>
<svg
   width="512"
   height="512"
   viewBox="0 0 512 512"
   id="Layer_1"
   version="1.1"
   xml:space="preserve"
   sodipodi:docname="logo.svg"
   inkscape:version="1.2 (dc2aedaf03, 2022-05-15)"
   inkscape:export-filename="../decentra-vault-1.png"
   inkscape:export-xdpi="96"
   inkscape:export-ydpi="96"
   xmlns:inkscape="http://www.inkscape.org/namespaces/inkscape"
   xmlns:sodipodi="http://sodipodi.sourceforge.net/DTD/sodipodi-0.dtd"
   xmlns="http://www.w3.org/2000/svg"
   xmlns:svg="http://www.w3.org/2000/svg"><defs
     id="defs186"><rect
       x="438.13162"
       y="178.0415"
       width="80.407677"
       height="40.136208"
       id="rect4576" /><rect
       x="75.31427"
       y="222.04214"
       width="105.03878"
       height="64.223969"
       id="rect3502" /><rect
       x="32.861141"
       y="210.03719"
       width="450.77509"
       height="71.338158"
       id="rect2380" /><rect
       x="27.154539"
       y="408.24854"
       width="325.02975"
       height="48.914574"
       id="rect1836" /></defs><sodipodi:namedview
     id="namedview184"
     pagecolor="#ffffff"
     bordercolor="#666666"
     borderopacity="1.0"
     inkscape:showpageshadow="2"
     inkscape:pageopacity="0.0"
     inkscape:pagecheckerboard="0"
     inkscape:deskcolor="#d1d1d1"
     showgrid="false"
     inkscape:zoom="0.75682523"
     inkscape:cx="255.01264"
     inkscape:cy="249.72741"
     inkscape:window-width="1366"
     inkscape:window-height="750"
     inkscape:window-x="0"
     inkscape:window-y="18"
     inkscape:window-maximized="1"
     inkscape:current-layer="g181" /><style
     type="text/css"
     id="style161">
	.st0{fill:#2B79C2;}
	.st1{fill:#3B4652;}
	.st2{fill:#333333;}
</style><g
     id="g181"><path
       class="st1"
       d="m 125.4426,335.58062 c 0.004,5.1 4.10691,9.29695 9.30691,9.29309 l 65.49998,-0.0487 c 5.1,-0.004 9.29695,-4.10691 9.29309,-9.3069 L 209.4181,168.01817 c -0.004,-5.1 -4.10691,-9.29695 -9.3069,-9.29308 l -65.49999,0.0487 c -5.09999,0.004 -9.29695,4.10691 -9.29308,9.30691 z m 51.02634,-99.13794 c 7.70037,0.49427 14.00505,6.78959 14.41085,14.58929 0.40654,8.7997 -6.58803,16.1049 -15.28803,16.11137 -4.2,0.003 -8.10126,-1.69398 -10.90334,-4.4919 l -20.79457,7.31545 -0.027,-36.29999 20.80542,7.28454 c 2.9977,-3.10222 7.19643,-4.80534 11.79665,-4.50876 z"
       id="path165"
       style="fill:#fcf8ed;fill-opacity:1" /><path
       class="st0"
       d="m 271.83808,352.42522 0.0245,-22.69998 49.99997,0.054 c 42.59997,0.046 77.33746,-34.61643 77.3835,-77.21641 0.0461,-42.59997 -34.61643,-77.33746 -77.21641,-77.38349 l -49.99997,-0.054 0.0245,-22.69999 c 0.004,-4.19999 -3.3919,-7.50367 -7.49189,-7.50809 l -34.89998,-0.0378 c -4.2,-0.004 -7.50367,3.39189 -7.5081,7.49189 l -0.21609,199.99996 c -0.004,4.2 3.39188,7.50367 7.49188,7.5081 l 34.89997,0.0377 c 4.0999,0.10443 7.50357,-3.29189 7.50812,-7.49189 z m 0.0418,-38.69997 0.13254,-122.59992 49.99997,0.054 c 33.79998,0.0365 61.27024,27.56624 61.23371,61.36623 -0.0365,33.79997 -27.56624,61.27023 -61.36621,61.2337 z"
       id="path167"
       style="fill:#fcf8ed;fill-opacity:1" /><path
       class="st1"
       d="m 255.81626,349.30589 -0.033,30.49999 c -0.004,4.39999 3.59136,8.00388 7.99135,8.00864 l 126.99992,0.13726 -0.0115,10.29999 c -9.70355,3.28952 -16.81361,12.58184 -16.82528,23.38183 -0.0151,13.59999 11.07319,24.81199 24.77318,24.82679 13.7,0.0148 24.81198,-11.07319 24.8268,-24.77318 0.0114,-10.79999 -6.97829,-20.10755 -16.7747,-23.41814 l 0.0197,-18.29999 c 0.004,-4.4 -3.59135,-8.00389 -7.99134,-8.00864 l -126.99993,-0.13727 0.0243,-22.49998 c 0.004,-4.4 -3.59135,-8.00389 -7.99135,-8.00865 -4.39998,-0.005 -8.00389,3.59136 -8.00863,7.99135 z"
       id="path169"
       style="fill:#fcf8ed;fill-opacity:1" /><path
       class="st1"
       d="m 228.30344,417.40421 c -0.008,-10.8 -7.01494,-20.0948 -16.81739,-23.38751 l -0.0117,-15.8 c -0.003,-4.4 -3.60594,-7.99732 -8.00594,-7.99405 l -31.29999,0.0233 -0.0255,-34.29999 c -0.003,-4.4 -3.60595,-7.99732 -8.00595,-7.99405 -4.39999,0.003 -7.99732,3.60594 -7.99405,8.00594 l 0.0314,42.29999 c 0.003,4.4 3.60594,7.99732 8.00594,7.99405 l 31.29999,-0.0233 0.006,7.8 c -9.69755,3.30721 -16.79064,12.61248 -16.78261,23.41248 0.0101,13.59999 11.11843,24.79174 24.81842,24.78156 13.7,-0.0102 24.79175,-11.11843 24.78157,-24.81842 z"
       id="path171"
       style="fill:#fcf8ed;fill-opacity:1" /><path
       class="st1"
       d="m 172.01484,163.64597 -0.0256,-34.39999 31.29999,-0.0233 c 4.4,-0.003 7.99732,-3.60595 7.99406,-8.00595 l -0.0118,-15.79999 c 9.69755,-3.30721 16.79064,-12.61248 16.78261,-23.41248 -0.0101,-13.6 -11.11843,-24.79174 -24.81842,-24.78156 -13.7,0.0102 -24.79175,11.11842 -24.78157,24.81842 0.008,10.8 7.01494,20.09479 16.81739,23.38751 l 0.006,7.8 -31.29999,0.0233 c -4.4,0.003 -7.99732,3.60594 -7.99405,8.00594 l 0.0314,42.29999 c 0.003,4.4 3.60595,7.99732 8.00595,7.99405 4.4,-0.003 7.99739,-3.50594 7.99412,-7.90594 z"
       id="path177"
       style="fill:#fcf8ed;fill-opacity:1" /><path
       style="fill:#fcf8ed;fill-opacity:1;stroke-width:0.934307"
       d="m 259.4471,120.64057 2.29577,-2.29081 64.97674,0.0702 64.97674,0.0702 0.007,-5.58685 c 0.006,-5.51268 -0.0405,-5.61082 -3.49567,-7.39266 -14.65418,-7.557136 -17.09519,-27.745541 -4.70527,-38.914781 5.11173,-4.608122 9.50814,-6.321866 16.19942,-6.314634 6.67142,0.0073 11.08352,1.730056 16.12869,6.297985 11.44761,10.364708 9.90286,29.043637 -3.12325,37.76614 l -4.64766,3.11217 -0.51147,10.7723 c -0.49054,10.33145 -0.6175,10.86328 -3.10264,12.99625 l -2.59119,2.22397 -64.88216,-0.0702 -64.88218,-0.0702 -0.0136,12.68501 -0.0136,12.68499 -2.734,2.7281 c -2.96625,2.95986 -4.69006,3.31934 -7.8431,1.63566 -4.11034,-2.1949 -4.31224,-3.22631 -4.32294,-22.08433 -0.0101,-17.91314 0.004,-18.04247 2.28554,-20.31872 z"
       id="path1780" /><text
       xml:space="preserve"
       id="text1834"
       style="font-style:normal;font-weight:normal;font-size:192px;line-height:1.25;font-family:sans-serif;white-space:pre;shape-inside:url(#rect1836);display:inline;fill:#2b79c2;fill-opacity:1;stroke:none"
       transform="translate(73.94862,-174.97351)"><tspan
         x="27.154297"
         y="631.72166"
         id="tspan1605"><tspan
           dx="0 60.999973 39.208317 36.583321 38.624985 45.958313 28.999985 30.291641 41.041656 21.5 22.166656 35.458313 39.041656 45.208313 15.083313 50.083313 41.041626 45.791687 21.5"
           style="font-size:85.3333px"
           id="tspan1603">Decentralized Vault</tspan></tspan></text><path
       style="fill:#2b79c2;fill-opacity:1;stroke-width:0.934307"
       d=""
       id="path1890" /><text
       xml:space="preserve"
       id="text2378"
       style="font-style:normal;font-weight:normal;font-size:48px;line-height:1.25;font-family:sans-serif;white-space:pre;shape-inside:url(#rect2380);display:inline;fill:#2b79c2;fill-opacity:1;stroke:none"
       transform="translate(17.347115,14.821225)"><tspan
         x="32.861328"
         y="368.6538"
         id="tspan1611"><tspan
           style="font-size:96px"
           id="tspan1607">D</tspan><tspan
           dx="68.15625 25.968018 21.743958 25.968018 27.64801 16.992004 16.031982 26.160004 13.007996 13.440033 22.703979 25.968018 27.312012 12 25.007996 26.160004 27.64801 13.007996"
           style="font-family:Changa;-inkscape-font-specification:Changa"
           id="tspan1609">ecentralized Vault</tspan></tspan></text><text
       xml:space="preserve"
       id="text3500"
       style="font-style:normal;font-weight:normal;font-size:40px;line-height:1.25;font-family:sans-serif;white-space:pre;shape-inside:url(#rect3502);fill:#000000;fill-opacity:1;stroke:none" /><text
       xml:space="preserve"
       style="font-style:normal;font-weight:normal;font-size:40px;line-height:1.25;font-family:sans-serif;fill:#000000;fill-opacity:1;stroke:none"
       x="319.23962"
       y="235.57117"
       id="text4545"><tspan
         sodipodi:role="line"
         id="tspan4543"
         x="319.23962"
         y="235.57117" /></text><text
       xml:space="preserve"
       id="text4574"
       style="font-style:normal;font-weight:normal;font-size:40px;line-height:1.25;font-family:sans-serif;white-space:pre;shape-inside:url(#rect4576);fill:#000000;fill-opacity:1;stroke:none" /><path
       style="fill:#000000;fill-opacity:0;stroke-width:0.165164"
       d="m 93.400031,263.87411 c -6.387294,-5.46681 -10.493055,-12.95976 -11.559648,-21.0962 -0.394368,-3.0084 -0.452613,-2.81505 0.887775,-2.94713 3.627718,-0.35747 8.457813,-2.08949 11.340369,-4.06654 l 0.668495,-0.45849 0.900559,0.58182 c 1.266592,0.8183 4.290006,2.2393 5.855469,2.75207 1.63982,0.53712 3.93507,1.04232 5.42572,1.19424 l 1.13147,0.11531 -0.10774,1.09034 c -0.78795,7.97393 -3.97101,14.98634 -9.330392,20.5553 -1.067772,1.10953 -3.65333,3.41024 -3.83239,3.41019 -0.03211,-10e-6 -0.652967,-0.50892 -1.379687,-1.13091 z"
       id="path686" /></g></svg>
