<?xml version="1.0" standalone="no"?>
<!DOCTYPE svg PUBLIC "-//W3C//DTD SVG 20010904//EN"
 "http://www.w3.org/TR/2001/REC-SVG-20010904/DTD/svg10.dtd">
<svg version="1.0" xmlns="http://www.w3.org/2000/svg"
 width="1024.000000pt" height="1024.000000pt" viewBox="0 0 1024.000000 1024.000000"
 preserveAspectRatio="xMidYMid meet">
<metadata>
Created by potrace 1.14, written by Peter Selinger 2001-2017
</metadata>
<g transform="translate(0.000000,1024.000000) scale(0.100000,-0.100000)"
fill="#000000" stroke="none">
<path d="M2632 9240 c-118 -32 -206 -84 -303 -180 -73 -71 -94 -100 -133 -180
-114 -235 -100 -485 39 -700 128 -198 340 -313 575 -312 264 0 498 148 615
388 l36 74 197 0 197 0 55 -97 c30 -54 72 -128 93 -165 l37 -67 -73 -50 c-357
-241 -610 -553 -782 -965 l-41 -100 -105 3 c-666 16 -1292 -368 -1579 -971
-224 -470 -224 -1006 0 -1476 282 -592 886 -972 1546 -972 l112 0 5 -512 c5
-568 10 -619 72 -852 169 -625 631 -1130 1245 -1359 366 -136 797 -159 1180
-62 511 129 950 454 1226 906 157 257 257 565 283 874 6 66 11 319 11 562 l0
441 313 5 c265 4 326 7 402 24 559 126 965 534 1087 1093 28 129 31 404 5 533
-58 289 -186 528 -391 732 -212 210 -466 342 -751 390 -143 24 -351 22 -485
-4 -58 -12 -106 -21 -107 -21 -2 0 -3 26 -3 58 0 246 -86 592 -210 847 -145
299 -393 594 -653 779 -53 37 -97 71 -96 75 0 3 44 83 97 176 l97 170 200 3
200 2 28 -62 c80 -185 265 -337 464 -384 90 -21 240 -21 323 0 244 64 438 259
501 504 23 92 25 249 4 340 -48 202 -190 379 -376 467 -105 49 -177 65 -294
65 -264 0 -498 -146 -612 -381 l-38 -77 -260 -4 c-243 -4 -264 -5 -318 -27
-106 -42 -159 -105 -303 -361 -70 -124 -128 -226 -129 -228 -2 -2 -47 10 -101
27 -363 111 -770 120 -1134 24 -52 -14 -106 -27 -120 -29 -23 -4 -33 10 -145
212 -124 223 -167 281 -246 327 -82 48 -142 57 -399 57 l-235 1 -29 65 c-74
165 -210 290 -391 357 -70 26 -96 31 -205 34 -101 2 -139 -1 -198 -17z m2774
-3210 c220 -38 446 -129 644 -261 132 -87 343 -300 432 -434 132 -200 219
-416 259 -641 18 -102 22 -174 26 -496 l6 -378 -331 0 -331 0 -3 383 c-4 355
-6 388 -26 460 -105 379 -407 655 -788 722 -313 54 -627 -46 -855 -274 -127
-127 -216 -282 -261 -452 -20 -78 -22 -112 -25 -461 l-4 -378 -330 0 -329 0 0
283 c0 331 12 521 41 655 137 635 635 1130 1266 1261 132 28 134 28 325 30
126 1 194 -4 284 -19z"/>
</g>
</svg>
