<?xml version="1.0" encoding="UTF-8" standalone="no"?>
<svg
   role="img"
   viewBox="0 0 576 576"
   version="1.1"
   id="svg97"
   width="576"
   height="576"
   xmlns="http://www.w3.org/2000/svg"
   xmlns:svg="http://www.w3.org/2000/svg">
  <defs
     id="defs101" />
  <title
     id="title93">Jest</title>
  <path
     d="M 22.251,11.82 A 3.117,3.117 0 0 0 19.923,8.81 L 22.911,0 H 8.104 L 11.1,8.838 a 3.116,3.116 0 0 0 -2.244,2.988 c 0,1.043 0.52,1.967 1.313,2.536 a 8.279,8.279 0 0 1 -1.084,1.244 8.14,8.14 0 0 1 -2.55,1.647 C 5.701,16.69 5.34,15.697 5.666,14.807 A 3.11,3.11 0 0 0 4.756,8.727 3.117,3.117 0 0 0 1.643,11.84 c 0,0.848 0.347,1.626 0.903,2.182 C 2.498,14.119 2.449,14.217 2.4,14.321 1.935,15.28 1.407,16.364 1.205,17.58 0.802,20.012 1.462,21.964 3.054,23.069 A 5.093,5.093 0 0 0 5.999,24 c 1.827,0 3.682,-0.917 5.475,-1.807 1.279,-0.632 2.599,-1.292 3.898,-1.612 0.48,-0.118 0.98,-0.187 1.508,-0.264 1.07,-0.153 2.175,-0.312 3.168,-0.89 a 4.482,4.482 0 0 0 2.182,-3.091 c 0.174,-0.994 0,-1.994 -0.444,-2.87 0.298,-0.48 0.465,-1.042 0.465,-1.647 z m -1.355,0 c 0,0.965 -0.785,1.75 -1.75,1.75 a 1.753,1.753 0 0 1 -1.085,-3.126 l 0.007,-0.007 c 0.056,-0.042 0.118,-0.084 0.18,-0.125 0,0 0.008,0 0.008,-0.007 0.028,-0.014 0.055,-0.035 0.083,-0.05 0.007,0 0.014,-0.006 0.021,-0.006 0.028,-0.014 0.063,-0.028 0.097,-0.042 0.035,-0.014 0.07,-0.027 0.098,-0.041 0.007,0 0.013,-0.007 0.02,-0.007 0.028,-0.007 0.056,-0.021 0.084,-0.028 0.007,0 0.02,-0.007 0.028,-0.007 0.034,-0.007 0.062,-0.014 0.097,-0.02 h 0.007 l 0.104,-0.022 c 0.007,0 0.02,0 0.028,-0.007 0.028,0 0.055,-0.007 0.083,-0.007 h 0.035 c 0.035,0 0.07,-0.007 0.111,-0.007 h 0.09 c 0.028,0 0.05,0 0.077,0.007 h 0.014 c 0.055,0.007 0.111,0.014 0.167,0.028 a 1.766,1.766 0 0 1 1.396,1.723 z M 10.043,1.39 h 10.93 l -2.509,7.4 C 18.36,8.81 18.256,8.845 18.152,8.88 l -2.64,-5.385 -2.648,5.35 C 12.76,8.811 12.648,8.79 12.537,8.769 l -2.494,-7.38 z m 4.968,9.825 A 3.083,3.083 0 0 0 14.073,9.547 l 1.438,-2.904 1.452,2.967 c -0.43,0.43 -0.743,0.98 -0.868,1.605 H 15.01 Z M 11.53,10.117 c 0.034,-0.007 0.062,-0.014 0.097,-0.02 h 0.02 c 0.029,-0.008 0.056,-0.008 0.084,-0.015 h 0.028 c 0.028,0 0.049,-0.007 0.076,-0.007 h 0.271 c 0.028,0 0.049,0.007 0.07,0.007 0.014,0 0.02,0 0.035,0.007 0.027,0.007 0.048,0.007 0.076,0.014 0.007,0 0.014,0 0.028,0.007 l 0.097,0.02 h 0.007 c 0.028,0.008 0.056,0.015 0.083,0.029 0.007,0 0.014,0.007 0.028,0.007 0.021,0.007 0.049,0.014 0.07,0.027 0.007,0 0.014,0.007 0.02,0.007 0.028,0.014 0.056,0.021 0.084,0.035 h 0.007 a 0.374,0.374 0 0 1 0.09,0.049 h 0.007 c 0.028,0.014 0.056,0.034 0.084,0.048 0.007,0 0.007,0.007 0.013,0.007 0.028,0.014 0.05,0.035 0.077,0.049 l 0.007,0.007 c 0.083,0.062 0.16,0.132 0.236,0.201 l 0.007,0.007 a 1.747,1.747 0 0 1 0.48,1.209 1.752,1.752 0 0 1 -3.502,0 1.742,1.742 0 0 1 1.32,-1.695 z M 4.692,10.068 c 0.966,0 1.751,0.786 1.751,1.751 0,0.965 -0.785,1.751 -1.75,1.751 -0.965,0 -1.752,-0.785 -1.752,-1.75 0,-0.965 0.786,-1.752 1.751,-1.752 z m 16.163,6.025 a 3.07,3.07 0 0 1 -1.508,2.133 c -0.758,0.438 -1.689,0.577 -2.669,0.716 a 17.29,17.29 0 0 0 -1.64,0.291 c -1.445,0.355 -2.834,1.05 -4.182,1.717 -1.724,0.854 -3.35,1.66 -4.857,1.66 A 3.645,3.645 0 0 1 3.845,21.922 C 2.316,20.866 2.392,18.886 2.573,17.802 2.74,16.787 3.205,15.836 3.65,14.925 c 0.028,-0.055 0.049,-0.104 0.077,-0.16 0.152,0.056 0.312,0.098 0.479,0.126 -0.264,1.473 0.486,2.994 1.946,3.745 L 6.416,18.775 6.7,18.671 C 7.916,18.24 9.042,17.538 10.036,16.6 a 9.334,9.334 0 0 0 1.445,-1.716 c 0.16,0.027 0.32,0.034 0.48,0.034 a 3.117,3.117 0 0 0 3.008,-2.327 h 1.167 a 3.109,3.109 0 0 0 3.01,2.327 c 0.576,0 1.11,-0.16 1.57,-0.43 0.18,0.52 0.236,1.063 0.139,1.605 z"
     id="path95"
     style="fill:#aaaaff;fill-opacity:1" />
</svg>
